<?xml version="1.0" standalone="no"?>
<!DOCTYPE svg PUBLIC "-//W3C//DTD SVG 20010904//EN"
 "http://www.w3.org/TR/2001/REC-SVG-20010904/DTD/svg10.dtd">
<svg version="1.0" xmlns="http://www.w3.org/2000/svg"
 width="308.000000pt" height="315.000000pt" viewBox="0 0 308.000000 315.000000"
 preserveAspectRatio="xMidYMid meet">

<g transform="translate(0.000000,315.000000) scale(0.100000,-0.100000)"
fill="#000000" stroke="none">
<path d="M1483 2928 c-6 -7 -28 -47 -50 -88 -22 -41 -58 -109 -80 -150 -23
-41 -166 -309 -318 -595 -153 -286 -347 -650 -433 -810 -85 -159 -171 -321
-192 -360 -20 -38 -79 -149 -130 -245 -52 -96 -100 -179 -107 -183 -9 -6 -13
-35 -13 -103 l0 -94 282 2 282 3 11 62 c6 34 9 66 6 71 -3 4 -62 18 -131 31
-69 12 -129 26 -134 31 -5 5 66 150 165 337 l174 328 465 0 464 0 28 -160 c15
-88 41 -236 58 -329 16 -93 28 -172 25 -176 -2 -3 -61 -17 -131 -31 -141 -27
-136 -23 -149 -116 l-7 -53 535 0 535 0 11 65 c7 36 10 69 7 73 -3 5 -48 19
-101 32 -110 27 -105 21 -129 147 -8 43 -49 245 -90 448 -153 751 -278 1367
-327 1610 -28 137 -53 253 -56 257 -2 5 -107 8 -232 8 -171 0 -231 -3 -238
-12z m56 -628 c11 -63 50 -279 86 -480 36 -201 69 -380 72 -397 l6 -33 -387 0
-387 0 44 83 c62 115 316 598 422 802 48 94 93 176 99 184 13 16 17 2 45 -159z"/>
</g>
</svg>
